<?xml version="1.0" standalone="no"?>
<!DOCTYPE svg PUBLIC "-//W3C//DTD SVG 20010904//EN"
 "http://www.w3.org/TR/2001/REC-SVG-20010904/DTD/svg10.dtd">
<svg version="1.0" xmlns="http://www.w3.org/2000/svg"
 width="512.000000pt" height="512.000000pt" viewBox="0 0 512.000000 512.000000"
 preserveAspectRatio="xMidYMid meet">

<g transform="translate(0.000000,512.000000) scale(0.100000,-0.100000)"
fill="currentColor" stroke="none">
<path d="M1535 4786 c-16 -7 -40 -24 -51 -37 -12 -13 -140 -203 -286 -421
l-264 -397 -189 189 c-204 203 -217 211 -302 195 -49 -9 -109 -69 -118 -118
-17 -88 -16 -90 283 -389 239 -239 282 -278 314 -283 52 -10 102 1 135 29 16
13 179 250 363 526 l335 503 0 58 c0 62 -17 94 -67 132 -34 25 -113 32 -153
13z"/>
<path d="M3615 4786 c-67 -29 -105 -105 -90 -183 6 -32 37 -69 208 -240 l201
-203 -201 -202 c-217 -219 -224 -230 -208 -315 9 -49 69 -109 118 -118 85 -16
96 -9 315 208 l202 201 203 -201 c218 -217 229 -224 314 -208 49 9 109 69 118
118 16 85 9 96 -208 315 l-201 202 201 203 c217 218 224 229 208 314 -9 49
-69 109 -118 118 -85 16 -96 9 -315 -208 l-202 -202 -198 197 c-108 108 -210
202 -225 208 -38 14 -85 12 -122 -4z"/>
<path d="M2386 4150 c-63 -16 -153 -70 -197 -117 -22 -24 -55 -74 -72 -111
l-32 -67 -5 -827 -5 -827 -125 70 c-68 38 -151 78 -185 89 -134 44 -284 49
-421 15 -160 -40 -364 -184 -379 -267 -17 -92 -26 -81 388 -494 393 -391 498
-482 650 -564 l76 -41 3 -294 c3 -278 4 -295 24 -321 39 -53 71 -69 134 -69
63 0 95 16 134 69 20 26 21 42 24 384 2 236 0 370 -8 394 -10 35 -71 98 -96
98 -28 0 -198 94 -274 151 -47 35 -213 190 -368 344 l-284 280 32 13 c55 22
149 26 225 8 56 -14 119 -45 315 -159 236 -137 247 -142 302 -142 61 0 94 17
132 69 21 27 21 37 26 998 l5 970 24 19 c30 24 72 24 102 0 l24 -19 5 -650 c5
-637 5 -651 26 -678 39 -53 71 -69 134 -69 63 0 95 16 134 69 17 22 22 45 24
127 2 54 8 99 12 99 5 0 230 -25 500 -55 298 -33 502 -61 518 -69 15 -8 37
-25 48 -38 39 -43 44 -77 34 -250 -17 -282 -58 -498 -127 -670 -62 -156 -133
-255 -247 -346 -41 -33 -74 -68 -82 -89 -12 -28 -14 -100 -12 -398 3 -349 4
-365 24 -391 39 -53 71 -69 134 -69 63 0 95 16 134 69 20 26 21 42 24 334 l3
306 73 76 c241 253 361 606 396 1168 7 114 7 183 0 230 -28 174 -163 331 -328
382 -34 11 -267 41 -579 76 l-522 58 -3 416 -3 416 -37 76 c-68 136 -188 217
-336 224 -42 2 -94 -1 -116 -6z"/>
</g>
</svg>
