<?xml version="1.0" standalone="no"?>
<!DOCTYPE svg PUBLIC "-//W3C//DTD SVG 20010904//EN"
 "http://www.w3.org/TR/2001/REC-SVG-20010904/DTD/svg10.dtd">
<svg version="1.0" xmlns="http://www.w3.org/2000/svg"
 width="512.000000pt" height="512.000000pt" viewBox="0 0 512.000000 512.000000"
 preserveAspectRatio="xMidYMid meet">

<g transform="translate(0.000000,512.000000) scale(0.100000,-0.100000)"
fill="currentColor" stroke="none">
<path d="M1990 5102 c-20 -10 -42 -32 -52 -52 -10 -21 -35 -166 -65 -374 l-48
-338 -107 -54 c-113 -57 -189 -102 -274 -165 l-51 -37 -309 124 c-169 68 -325
129 -345 134 -45 12 -105 -8 -130 -43 -18 -25 -497 -853 -524 -906 -22 -44
-15 -104 17 -138 13 -14 143 -120 290 -235 253 -199 267 -212 260 -237 -9 -34
-9 -408 0 -442 7 -25 -7 -38 -260 -237 -147 -115 -277 -221 -290 -234 -30 -33
-38 -85 -19 -130 23 -54 514 -900 537 -925 11 -12 38 -27 59 -34 38 -11 48 -8
377 124 l337 135 51 -37 c82 -59 175 -115 282 -169 l99 -50 48 -338 c30 -208
55 -353 65 -374 35 -71 23 -70 620 -70 584 0 580 0 618 58 13 19 32 129 68
376 l51 349 120 61 c112 57 203 113 278 170 l32 25 310 -126 c171 -69 325
-129 343 -133 44 -11 93 4 124 37 46 51 539 920 545 960 4 29 -1 46 -19 73
-13 19 -145 130 -293 246 l-270 212 5 68 c7 97 5 330 -3 386 l-7 47 268 209
c147 116 277 221 290 234 30 33 38 85 19 130 -23 54 -514 900 -537 925 -11 12
-38 27 -59 34 -38 11 -48 8 -377 -124 l-337 -135 -51 37 c-82 59 -175 115
-282 169 l-99 50 -48 338 c-31 221 -54 351 -66 373 -9 19 -32 42 -51 53 -32
17 -69 18 -570 18 -489 0 -538 -2 -570 -18z m690 -1657 c363 -39 679 -334 756
-704 20 -97 20 -265 0 -362 -117 -563 -732 -872 -1253 -629 -192 89 -331 226
-428 419 -89 178 -113 415 -62 612 95 366 399 628 776 668 75 8 101 8 211 -4z"/>
</g>
</svg>
