<?xml version="1.0" standalone="no"?>
<!DOCTYPE svg PUBLIC "-//W3C//DTD SVG 20010904//EN"
 "http://www.w3.org/TR/2001/REC-SVG-20010904/DTD/svg10.dtd">
<svg version="1.0" xmlns="http://www.w3.org/2000/svg"
 width="512.000000pt" height="512.000000pt" viewBox="0 0 512.000000 512.000000"
 preserveAspectRatio="xMidYMid meet">

<g transform="translate(0.000000,512.000000) scale(0.100000,-0.100000)"
fill="currentColor" stroke="none">
<path d="M0 4750 l0 -170 414 0 414 0 406 -1627 c224 -896 409 -1635 411
-1643 3 -11 -13 -22 -58 -39 -374 -144 -475 -623 -191 -905 110 -109 232 -157
393 -157 240 0 449 157 522 391 24 78 27 220 6 295 -8 28 -16 57 -18 65 -4 13
70 15 605 18 l608 2 -6 -22 c-56 -192 -39 -354 52 -494 112 -171 268 -255 471
-255 150 1 275 53 382 160 110 110 162 238 161 396 0 201 -114 386 -294 480
-126 66 -92 65 -1245 65 l-1042 0 -10 38 c-6 20 -32 126 -59 234 l-50 198
1333 0 1333 0 286 1148 c158 631 289 1155 292 1165 5 16 -91 17 -1910 17
l-1915 0 -10 38 c-6 20 -51 202 -102 405 l-91 367 -544 0 -544 0 0 -170z
m1992 -1265 c20 -159 39 -309 42 -332 l6 -43 -250 0 -249 0 -10 38 c-41 155
-151 604 -151 617 0 13 34 15 288 13 l287 -3 37 -290z m878 -40 l0 -335 -247
2 -248 3 -41 325 c-23 179 -39 328 -37 333 2 4 132 7 289 7 l284 0 0 -335z
m910 323 c0 -7 -18 -155 -40 -328 -22 -173 -40 -318 -40 -323 0 -4 -111 -6
-247 -5 l-248 3 -3 320 c-1 176 0 325 3 332 7 19 575 19 575 1z m908 -5 c-3
-10 -40 -161 -84 -335 l-79 -318 -242 0 c-217 0 -243 2 -243 16 0 17 66 553
76 617 l6 37 285 0 c267 0 285 -1 281 -17z m-2604 -1020 c8 -53 76 -598 76
-612 0 -8 -52 -11 -187 -9 l-187 3 -82 328 -82 327 228 0 228 0 6 -37z m786
-293 l0 -330 -185 0 -184 0 -6 33 c-8 48 -75 592 -75 611 0 14 24 16 225 16
l225 0 0 -330z m786 313 c-2 -10 -22 -159 -42 -330 l-38 -313 -188 0 -188 0 0
323 c0 178 3 327 7 330 3 4 107 7 230 7 209 0 224 -1 219 -17z m784 12 c0 -3
-37 -151 -81 -330 l-81 -325 -185 0 c-171 0 -184 1 -179 18 2 9 22 158 42 330
l38 312 223 0 c123 0 223 -2 223 -5z m-2559 -1826 c20 -10 50 -33 66 -53 85
-96 63 -249 -46 -322 -47 -31 -132 -42 -185 -24 -86 28 -147 114 -147 206 0
165 165 267 312 193z m2200 17 c50 -9 123 -75 145 -131 50 -133 -38 -277 -178
-292 -133 -14 -238 81 -238 213 0 71 28 134 77 171 35 27 116 54 143 48 8 -2
31 -6 51 -9z"/>
</g>
</svg>
