<?xml version="1.0" standalone="no"?>
<!DOCTYPE svg PUBLIC "-//W3C//DTD SVG 20010904//EN"
 "http://www.w3.org/TR/2001/REC-SVG-20010904/DTD/svg10.dtd">
<svg version="1.0" xmlns="http://www.w3.org/2000/svg"
 width="512.000000pt" height="512.000000pt" viewBox="0 0 512.000000 512.000000"
 preserveAspectRatio="xMidYMid meet">

<g transform="translate(0.000000,512.000000) scale(0.100000,-0.100000)"
fill="currentColor" stroke="none">
<path d="M566 5105 c-44 -15 -91 -57 -113 -99 -9 -17 -102 -333 -208 -703
l-192 -673 633 0 633 0 10 53 c6 28 73 364 150 745 l138 692 -506 0 c-403 -1
-514 -4 -545 -15z"/>
<path d="M1906 4388 c-80 -403 -146 -739 -146 -745 0 -10 167 -13 800 -13 633
0 800 3 800 13 0 6 -66 342 -146 745 l-147 732 -507 0 -507 0 -147 -732z"/>
<path d="M3641 4428 c77 -381 144 -717 150 -745 l10 -53 633 0 633 0 -192 673
c-106 370 -200 687 -208 704 -22 43 -80 90 -124 102 -24 7 -220 11 -539 11
l-501 0 138 -692z"/>
<path d="M2 3258 c4 -129 8 -162 27 -211 43 -111 143 -207 258 -250 55 -20 77
-22 417 -25 469 -4 531 7 647 115 68 63 98 112 125 202 l21 73 6 -41 c8 -66
61 -166 117 -221 58 -59 151 -106 236 -120 78 -13 1330 -13 1408 0 85 14 178
61 236 120 56 55 109 155 117 221 l6 41 21 -73 c27 -90 57 -139 125 -202 116
-108 178 -119 647 -115 340 3 362 5 417 25 115 43 215 139 258 250 19 49 23
82 27 211 l4 152 -2562 0 -2562 0 4 -152z"/>
<path d="M1470 2705 c-23 -28 -125 -83 -205 -112 l-80 -28 -404 -3 c-336 -3
-417 -1 -481 12 -42 9 -80 16 -84 16 -3 0 -5 -548 -4 -1218 l3 -1219 30 -48
c22 -36 45 -57 84 -77 l53 -28 234 0 234 0 2 988 3 987 22 40 c27 50 58 80
105 100 56 23 1180 23 1236 0 47 -20 78 -50 105 -100 l22 -40 3 -987 2 -988
1194 0 1194 0 53 28 c39 20 62 41 84 77 l30 48 3 1219 c1 670 -1 1218 -4 1218
-4 0 -42 -7 -84 -16 -64 -13 -145 -15 -481 -12 l-404 3 -80 28 c-80 29 -182
84 -205 112 -17 21 -22 19 -66 -16 -57 -45 -170 -96 -253 -114 -106 -22 -1434
-22 -1540 0 -86 18 -184 61 -247 109 -53 41 -57 42 -74 21z m2668 -590 c47
-20 78 -50 105 -100 21 -39 22 -50 22 -415 l0 -375 -25 -45 c-14 -24 -45 -58
-68 -75 l-44 -30 -586 -3 c-399 -2 -599 0 -624 8 -49 14 -94 53 -121 104 -22
40 -22 48 -22 416 0 365 1 376 22 415 26 49 57 79 103 99 53 23 1183 23 1238
1z"/>
</g>
</svg>
